<?xml version='1.0' encoding='iso-8859-1'?>
<svg version="1.1" xmlns="http://www.w3.org/2000/svg" viewBox="0 0 470 470" xmlns:xlink="http://www.w3.org/1999/xlink" enable-background="new 0 0 470 470">
  <g>
    <path d="m460.216,9.784c-6.31-6.309-14.698-9.784-23.621-9.784s-17.312,3.475-23.621,9.784c-2.929,2.929-2.929,7.678 0.001,10.606 2.928,2.93 7.677,2.929 10.606,0 3.476-3.476 8.098-5.391 13.014-5.391s9.538,1.915 13.015,5.391c3.476,3.477 5.391,8.099 5.391,13.015s-1.915,9.538-5.392,13.015c-3.476,3.476-8.098,5.391-13.014,5.391s-9.538-1.915-13.014-5.391c-1.407-1.407-3.314-2.197-5.304-2.197s-3.896,0.79-5.304,2.197l-42.89,42.889-9.849-9.849c-2.93-2.929-7.678-2.929-10.607,0l-81.83,81.831-12.809-12.809c-5.009-5.008-11.667-7.766-18.75-7.766-7.082,0-13.74,2.758-18.749,7.766-5.008,5.008-7.766,11.667-7.766,18.749 0,0.126 0.001,0.253 0.003,0.379-7.186-0.075-14.03,2.666-19.129,7.764-5.008,5.008-7.766,11.667-7.766,18.749 0,0.126 0.001,0.252 0.003,0.378-7.195-0.092-14.031,2.667-19.129,7.764-5.008,5.008-7.766,11.667-7.766,18.749 0,0.127 0.001,0.253 0.003,0.379-0.126-0.001-0.252-0.002-0.379-0.002-7.082,0-13.74,2.758-18.749,7.766-5.008,5.008-7.766,11.667-7.766,18.749 0,0.127 0.001,0.253 0.002,0.379-0.126-0.002-0.252-0.003-0.379-0.003-7.082,0-13.741,2.758-18.749,7.767-5.008,5.008-7.766,11.667-7.766,18.749 0,0.126 0.001,0.253 0.003,0.379-0.127-0.001-0.253-0.002-0.379-0.002-7.083,0-13.741,2.758-18.75,7.766-10.338,10.338-10.338,27.159 0,37.498l12.809,12.809-33.531,33.532c-0.746,0.747-1.327,1.643-1.703,2.629l-7.241,18.976-20.08,20.08c-2.929,2.929-2.929,7.677 0,10.606l3.519,3.519-34.606,34.607c-2.929,2.929-2.929,7.678-2.66454e-15,10.606 1.464,1.465 3.384,2.197 5.303,2.197s3.839-0.732 5.304-2.197l34.605-34.605 3.518,3.519c1.407,1.407 3.314,2.197 5.304,2.197s3.896-0.79 5.304-2.197l20.081-20.081 18.976-7.24c0.986-0.376 1.883-0.957 2.63-1.704l33.533-33.534 12.809,12.809c5.009,5.008 11.667,7.766 18.749,7.766 7.083,0 13.741-2.758 18.75-7.766 5.008-5.008 7.766-11.667 7.766-18.749 0-0.126-0.001-0.253-0.003-0.379 7.233,0.076 14.031-2.666 19.129-7.764 5.008-5.008 7.766-11.667 7.766-18.749 0-0.126-0.001-0.252-0.003-0.378 0.126,0.001 0.253,0.002 0.379,0.002 7.082,0 13.741-2.758 18.75-7.767 5.265-5.265 7.848-12.212 7.75-19.128 0.13,0.002 0.261,0.003 0.392,0.003 7.082,0 13.74-2.758 18.749-7.766 5.008-5.008 7.766-11.667 7.766-18.749 0-0.126-0.001-0.253-0.003-0.379 7.256,0.082 14.031-2.666 19.129-7.764 5.008-5.008 7.766-11.667 7.766-18.749 0-0.126-0.001-0.253-0.003-0.379 7.244,0.093 14.03-2.667 19.129-7.764 10.338-10.338 10.338-27.16 0-37.498l-12.809-12.809 81.832-81.831c1.406-1.406 2.196-3.314 2.196-5.303s-0.79-3.897-2.196-5.303l-9.85-9.85 38.18-38.18c5.262,3.306 11.356,5.075 17.724,5.075 8.923,0 17.312-3.475 23.62-9.784 6.307-6.308 9.781-14.697 9.781-23.62s-3.474-17.312-9.784-23.621zm-149.305,232.119c-2.175,2.175-5.066,3.373-8.143,3.373-3.075,0-5.967-1.198-8.142-3.373-2.931-2.93-7.679-2.928-10.607,0-1.464,1.464-2.196,3.384-2.196,5.303s0.732,3.839 2.196,5.303c2.176,2.175 3.373,5.067 3.373,8.143s-1.197,5.968-3.373,8.143c-2.175,2.175-5.066,3.373-8.143,3.373-3.075,0-5.967-1.198-8.142-3.373-2.931-2.93-7.679-2.928-10.607,0-1.464,1.464-2.196,3.384-2.196,5.303s0.732,3.839 2.196,5.303c2.176,2.175 3.373,5.066 3.373,8.143 0,3.076-1.197,5.967-3.373,8.142-2.175,2.175-5.066,3.373-8.142,3.373-3.076,0-5.968-1.198-8.143-3.372-2.927-2.929-7.676-2.93-10.606,0-2.929,2.929-2.929,7.678 0,10.606 4.49,4.489 4.489,11.795 0.001,16.284-2.176,2.175-5.067,3.373-8.144,3.373-3.075,0-5.967-1.198-8.142-3.373-2.931-2.93-7.679-2.928-10.607,0-1.464,1.464-2.196,3.384-2.196,5.303s0.732,3.839 2.196,5.303c2.175,2.175 3.373,5.066 3.373,8.142 0,3.076-1.198,5.968-3.373,8.143s-5.066,3.373-8.143,3.373c-3.075,0-5.967-1.198-8.142-3.373-2.931-2.93-7.679-2.928-10.607,0-1.464,1.464-2.196,3.384-2.196,5.303s0.732,3.839 2.196,5.303c2.175,2.175 3.373,5.067 3.373,8.143s-1.198,5.968-3.373,8.143-5.066,3.373-8.143,3.373c-3.075,0-5.967-1.198-8.142-3.373l-48.412-48.412c-0.01-0.01-18.117-18.117-18.117-18.117-4.49-4.49-4.49-11.795 0-16.285 2.175-2.175 5.066-3.373 8.143-3.373 3.075,0 5.967,1.198 8.142,3.373 2.93,2.929 7.678,2.928 10.607,0 1.464-1.464 2.196-3.384 2.196-5.303s-0.732-3.839-2.196-5.303c-2.175-2.175-3.373-5.066-3.373-8.143 0-3.076 1.198-5.967 3.373-8.142 2.175-2.175 5.066-3.373 8.142-3.373 3.076,0 5.968,1.198 8.144,3.374 2.928,2.929 7.677,2.927 10.606,0 1.464-1.465 2.196-3.384 2.196-5.304s-0.732-3.838-2.197-5.303c-2.175-2.175-3.372-5.066-3.372-8.142s1.197-5.967 3.373-8.143c2.175-2.175 5.066-3.373 8.142-3.373 3.076,0 5.968,1.198 8.143,3.373 2.928,2.929 7.677,2.928 10.606,0 2.929-2.929 2.929-7.678 0-10.606-2.176-2.175-3.373-5.066-3.373-8.143 0-3.076 1.197-5.967 3.372-8.142 2.176-2.175 5.067-3.373 8.144-3.373 3.075,0 5.967,1.198 8.142,3.373 2.93,2.929 7.678,2.929 10.607,0 1.464-1.464 2.196-3.384 2.196-5.303s-0.732-3.839-2.196-5.303c-2.176-2.175-3.373-5.066-3.373-8.142 0-3.076 1.197-5.968 3.373-8.143 2.175-2.175 5.066-3.373 8.142-3.373 3.076,0 5.968,1.198 8.143,3.373 2.93,2.929 7.678,2.929 10.607,0 1.464-1.464 2.196-3.384 2.196-5.303s-0.732-3.839-2.196-5.303c-2.176-2.175-3.373-5.067-3.373-8.143s1.197-5.968 3.373-8.143c2.175-2.175 5.066-3.373 8.142-3.373 3.076,0 5.968,1.198 8.143,3.373l48.416,48.416c0.003,0.003 18.114,18.114 18.114,18.114 4.49,4.488 4.49,11.793-0.001,16.283zm-238.77,162.994l-15.91,15.91-7.037-7.038 15.91-15.91c0.746-0.747 1.327-1.643 1.703-2.629l7.241-18.976 32.401-32.401 19.698,19.698-32.401,32.402-18.976,7.24c-0.986,0.376-1.882,0.957-2.629,1.704zm206.264-232.999l76.527-76.528 9.842,9.842c0.014,0.014 9.857,9.857 9.857,9.857l-76.528,76.527-19.698-19.698z"/>
    <path d="m249.311,196.587c-2.93-2.929-7.678-2.929-10.607,0-2.929,2.929-2.929,7.678 0,10.606l24.104,24.104c1.465,1.464 3.385,2.197 5.304,2.197s3.839-0.732 5.304-2.197c2.929-2.929 2.929-7.678 0-10.606l-24.105-24.104z"/>
    <path d="m222.419,223.478c-2.93-2.929-7.678-2.929-10.607,0-2.929,2.929-2.929,7.678 0,10.606l24.104,24.104c1.465,1.464 3.385,2.197 5.304,2.197s3.839-0.732 5.304-2.197c2.929-2.929 2.929-7.678 0-10.606l-24.105-24.104z"/>
    <path d="m195.527,250.369c-2.928-2.93-7.677-2.929-10.606,0-2.929,2.929-2.929,7.678 0.001,10.606l24.104,24.104c1.464,1.465 3.384,2.197 5.303,2.197s3.839-0.732 5.304-2.197c2.929-2.929 2.929-7.678-0.001-10.606l-24.105-24.104z"/>
    <path d="m168.637,277.261c-2.93-2.929-7.678-2.929-10.607,0-2.929,2.929-2.929,7.678 0,10.606l24.104,24.104c1.465,1.464 3.385,2.197 5.304,2.197s3.839-0.732 5.304-2.197c2.929-2.929 2.929-7.678 0-10.606l-24.105-24.104z"/>
    <path d="m141.745,304.152c-2.93-2.929-7.678-2.929-10.607,0-2.929,2.929-2.929,7.678 0,10.606l24.104,24.104c1.465,1.464 3.385,2.197 5.304,2.197s3.839-0.732 5.304-2.197c2.929-2.929 2.929-7.678 0-10.606l-24.105-24.104z"/>
  </g>
</svg>
